<svg width="64" height="64" viewBox="0 0 64 64" fill="none" xmlns="http://www.w3.org/2000/svg">
<circle cx="32" cy="32" r="32" fill="#F2F3F5"/>
<path d="M26.2182 20.8165L26.9231 21.0728V21.0728L26.2182 20.8165ZM25.4848 22.8333V23.5833C25.8002 23.5833 26.0819 23.386 26.1897 23.0896L25.4848 22.8333ZM38.5151 22.8333L37.8103 23.0896C37.9181 23.386 38.1998 23.5833 38.5151 23.5833V22.8333ZM37.7818 20.8165L37.0769 21.0728V21.0728L37.7818 20.8165ZM26.9231 21.0728C27.1027 20.5788 27.5722 20.25 28.0978 20.25V18.75C26.9414 18.75 25.9086 19.4734 25.5134 20.5602L26.9231 21.0728ZM26.1897 23.0896L26.9231 21.0728L25.5134 20.5602L24.78 22.577L26.1897 23.0896ZM21 23.5833H25.4848V22.0833H21V23.5833ZM17.75 26.8333C17.75 25.0384 19.2051 23.5833 21 23.5833V22.0833C18.3766 22.0833 16.25 24.21 16.25 26.8333H17.75ZM17.75 40.5V26.8333H16.25V40.5H17.75ZM21 43.75C19.2051 43.75 17.75 42.2949 17.75 40.5H16.25C16.25 43.1234 18.3766 45.25 21 45.25V43.75ZM43 43.75H21V45.25H43V43.75ZM46.25 40.5C46.25 42.2949 44.7949 43.75 43 43.75V45.25C45.6234 45.25 47.75 43.1234 47.75 40.5H46.25ZM46.25 26.8333V40.5H47.75V26.8333H46.25ZM43 23.5833C44.7949 23.5833 46.25 25.0384 46.25 26.8333H47.75C47.75 24.21 45.6234 22.0833 43 22.0833V23.5833ZM38.5151 23.5833H43V22.0833H38.5151V23.5833ZM37.0769 21.0728L37.8103 23.0896L39.22 22.577L38.4866 20.5602L37.0769 21.0728ZM35.9022 20.25C36.4278 20.25 36.8973 20.5788 37.0769 21.0728L38.4866 20.5602C38.0914 19.4734 37.0586 18.75 35.9022 18.75V20.25ZM28.0978 20.25H35.9022V18.75H28.0978V20.25Z" fill="black"/>
<circle cx="32" cy="33.6667" r="5.91667" stroke="black" stroke-width="1.5"/>
<circle cx="42.4167" cy="27.4167" r="1.25" fill="black"/>
</svg>
