<svg width="64" height="64" viewBox="0 0 64 64" fill="none" xmlns="http://www.w3.org/2000/svg">
<circle cx="32" cy="32" r="32" fill="#F2F3F5"/>
<path d="M17.0375 26.6687L17.7805 26.7709C17.7918 26.6889 17.7894 26.6055 17.7735 26.5242L17.0375 26.6687ZM30.7662 23.2188L30.0376 23.3963C30.1194 23.7323 30.4204 23.9688 30.7662 23.9688V23.2188ZM30.1101 20.5264L29.3814 20.704V20.704L30.1101 20.5264ZM17.75 21C17.75 20.3096 18.3096 19.75 19 19.75V18.25C17.4812 18.25 16.25 19.4812 16.25 21H17.75ZM17.75 26.2813V21H16.25V26.2813H17.75ZM17.7735 26.5242C17.7581 26.4462 17.75 26.3651 17.75 26.2813H16.25C16.25 26.4626 16.2677 26.6405 16.3016 26.8132L17.7735 26.5242ZM17.75 27.2188C17.75 27.0664 17.7604 26.917 17.7805 26.7709L16.2945 26.5665C16.2651 26.7801 16.25 26.9979 16.25 27.2188H17.75ZM17.75 42V27.2188H16.25V42H17.75ZM21 45.25C19.2051 45.25 17.75 43.7949 17.75 42H16.25C16.25 44.6234 18.3766 46.75 21 46.75V45.25ZM43 45.25H21V46.75H43V45.25ZM46.25 42C46.25 43.7949 44.7949 45.25 43 45.25V46.75C45.6234 46.75 47.75 44.6234 47.75 42H46.25ZM46.25 27.2188V42H47.75V27.2188H46.25ZM43 23.9688C44.7949 23.9688 46.25 25.4238 46.25 27.2188H47.75C47.75 24.5954 45.6234 22.4688 43 22.4688V23.9688ZM30.7662 23.9688H43V22.4688H30.7662V23.9688ZM29.3814 20.704L30.0376 23.3963L31.4949 23.0412L30.8388 20.3489L29.3814 20.704ZM28.167 19.75C28.7433 19.75 29.245 20.1441 29.3814 20.704L30.8388 20.3489C30.5385 19.1169 29.4349 18.25 28.167 18.25V19.75ZM19 19.75H28.167V18.25H19V19.75Z" fill="black"/>
<path d="M32 29.8333L32 39.8333" stroke="black" stroke-width="1.5" stroke-linecap="round" stroke-linejoin="round"/>
<path d="M27 34.8333H37" stroke="black" stroke-width="1.5" stroke-linecap="round" stroke-linejoin="round"/>
</svg>
